<?xml version="1.0" standalone="no"?>
<!DOCTYPE svg PUBLIC "-//W3C//DTD SVG 20010904//EN"
 "http://www.w3.org/TR/2001/REC-SVG-20010904/DTD/svg10.dtd">
<svg version="1.0" xmlns="http://www.w3.org/2000/svg"
 width="512.000000pt" height="512.000000pt" viewBox="0 0 512.000000 512.000000"
 preserveAspectRatio="xMidYMid meet">

<g transform="translate(0.000000,512.000000) scale(0.100000,-0.100000)"
fill="#000000" stroke="none">
<path d="M1336 5100 c-81 -32 -143 -104 -161 -187 l-7 -33 -196 0 c-206 -1
-217 -3 -240 -47 -17 -31 -17 -4115 0 -4146 21 -40 40 -46 136 -47 l92 0 0
-126 c0 -181 9 -193 148 -194 l92 0 0 -126 c0 -125 7 -156 39 -181 23 -18
3099 -18 3122 0 9 7 21 22 27 34 17 30 17 4271 1 4306 -18 39 -50 47 -184 47
l-125 0 0 86 c0 144 -11 153 -187 154 l-133 0 0 86 c0 85 -9 118 -39 141 -12
10 -247 12 -1023 13 l-1007 0 -16 56 c-12 42 -28 68 -63 103 -78 78 -177 100
-276 61z m148 -161 c14 -11 31 -29 36 -40 10 -18 6 -19 -90 -19 l-101 0 17 29
c31 53 92 66 138 30z m-314 -529 c0 -288 1 -313 21 -364 34 -92 141 -166 239
-166 62 0 132 31 180 80 71 70 80 109 80 352 0 201 -4 228 -39 255 -24 18 -66
15 -92 -6 -24 -19 -24 -23 -29 -240 l-5 -221 -27 -27 c-41 -41 -100 -39 -139
5 l-29 32 0 305 0 305 1135 0 1135 0 0 -1960 0 -1960 -1360 0 -1360 0 0 1960
0 1960 145 0 145 0 0 -310z m2750 -1930 l0 -2000 -1400 0 -1400 0 0 80 0 80
1293 0 c1000 1 1296 3 1308 13 9 7 21 22 27 34 9 16 12 493 12 1907 l0 1886
80 0 80 0 0 -2000z m320 -280 l0 -2040 -1440 0 -1440 0 0 80 0 80 1333 0
c1031 1 1336 3 1348 13 9 7 21 22 27 34 9 16 12 503 12 1947 l0 1926 80 0 80
0 0 -2040z"/>
<path d="M1626 3334 c-15 -16 -26 -38 -26 -54 0 -16 11 -38 26 -54 l27 -26
586 0 c576 0 588 0 609 20 40 38 37 93 -7 127 -12 9 -157 12 -602 13 l-586 0
-27 -26z"/>
<path d="M1626 3014 c-15 -16 -26 -38 -26 -54 0 -16 11 -38 26 -54 l27 -26
586 0 c576 0 588 0 609 20 40 38 37 93 -7 127 -12 9 -157 12 -602 13 l-586 0
-27 -26z"/>
<path d="M1946 2694 c-15 -16 -26 -38 -26 -54 0 -16 11 -38 26 -54 l27 -26
266 0 c281 1 285 1 310 48 16 30 7 65 -21 92 -21 19 -34 20 -289 20 l-266 0
-27 -26z"/>
</g>
</svg>
