<?xml version="1.0" standalone="no"?>
<!DOCTYPE svg PUBLIC "-//W3C//DTD SVG 20010904//EN"
 "http://www.w3.org/TR/2001/REC-SVG-20010904/DTD/svg10.dtd">
<svg version="1.0" xmlns="http://www.w3.org/2000/svg"
 width="512.000000pt" height="512.000000pt" viewBox="0 0 512.000000 512.000000"
 preserveAspectRatio="xMidYMid meet">

<g transform="translate(0.000000,512.000000) scale(0.100000,-0.100000)"
fill="#000000" stroke="none">
<path d="M3252 4955 c-11 -14 -124 -231 -250 -483 l-230 -457 -46 -440 c-25
-242 -49 -455 -52 -472 l-5 -33 -254 0 -255 0 -1 343 c-1 188 -2 389 -3 447
l-1 105 64 3 c35 2 68 -1 73 -6 5 -5 0 -76 -13 -173 -15 -120 -19 -188 -14
-254 19 -277 22 -287 75 -300 18 -4 34 0 53 15 31 25 34 63 16 185 -16 108
-13 201 11 374 l23 159 -22 46 c-33 67 -75 89 -182 94 l-88 4 -3 164 -3 163
-30 31 c-17 18 -49 36 -72 43 l-43 11 0 112 c0 164 8 158 -216 162 -98 2 -193
1 -211 -3 -50 -9 -63 -44 -63 -168 l0 -105 -35 -6 c-46 -9 -102 -65 -111 -111
-3 -19 -5 -327 -3 -685 l4 -650 -146 0 c-133 0 -149 -2 -173 -21 -18 -14 -26
-30 -26 -52 0 -50 339 -2647 352 -2697 14 -54 69 -117 123 -141 38 -18 95 -19
1054 -19 731 0 1024 3 1052 11 52 16 103 61 128 111 16 35 54 306 195 1389 97
741 176 1352 176 1358 0 7 -11 23 -25 36 l-24 25 -261 0 -262 0 6 38 c3 20 24
214 47 431 l41 394 -128 505 c-86 341 -134 512 -146 524 -27 27 -73 23 -96 -7z
m118 -596 c49 -189 87 -345 85 -347 -3 -3 -220 18 -452 44 l-52 6 162 324 c89
177 163 321 165 319 2 -2 43 -157 92 -346z m-1510 231 l0 -70 -105 0 -105 0 0
70 0 70 105 0 105 0 0 -70z m154 -267 c3 -32 6 -136 5 -230 l-1 -173 -259 0
-259 0 0 230 0 230 254 0 253 0 7 -57z m1015 -413 c46 -5 86 -11 88 -13 4 -4
-74 -763 -83 -804 -4 -22 -8 -23 -115 -23 -110 0 -111 0 -106 23 3 12 25 203
48 425 42 382 45 402 64 402 11 0 58 -4 104 -10z m428 -47 c18 -4 21 -10 17
-31 -2 -15 -20 -178 -39 -362 -19 -184 -38 -350 -41 -367 l-5 -33 -109 0 -109
0 5 33 c2 17 20 183 39 367 19 184 38 352 41 374 l6 39 87 -7 c47 -4 96 -10
108 -13z m-1439 -440 l2 -353 -260 0 -260 0 0 355 0 355 258 -2 257 -3 3 -352z
m1932 -508 c0 -8 -74 -586 -165 -1286 -91 -699 -165 -1277 -165 -1285 0 -8
-11 -26 -25 -39 l-24 -25 -1011 0 -1011 0 -24 25 c-14 13 -25 31 -25 38 0 8
-74 587 -165 1286 -91 699 -165 1278 -165 1286 0 13 178 15 1390 15 1222 0
1390 -2 1390 -15z"/>
</g>
</svg>
